<mxfile host="app.diagrams.net" agent="Mozilla/5.0 (Macintosh; Intel Mac OS X 10_15_7) AppleWebKit/537.36 (KHTML, like Gecko) Chrome/133.0.0.0 Safari/537.36" version="26.0.16">
  <diagram name="第 1 页" id="jbLr_YxTGnbmEOmsdvF0">
    <mxGraphModel dx="683" dy="1531" grid="1" gridSize="10" guides="1" tooltips="1" connect="1" arrows="1" fold="1" page="1" pageScale="1" pageWidth="827" pageHeight="1169" math="0" shadow="0">
      <root>
        <mxCell id="0" />
        <mxCell id="1" parent="0" />
        <mxCell id="APJIx1h4CYN2kZLJuxOD-8" value="" style="edgeStyle=orthogonalEdgeStyle;rounded=0;orthogonalLoop=1;jettySize=auto;html=1;" edge="1" parent="1" source="APJIx1h4CYN2kZLJuxOD-6" target="APJIx1h4CYN2kZLJuxOD-7">
          <mxGeometry relative="1" as="geometry" />
        </mxCell>
        <mxCell id="APJIx1h4CYN2kZLJuxOD-6" value="Cient on the Web or App" style="rounded=1;whiteSpace=wrap;html=1;" vertex="1" parent="1">
          <mxGeometry x="100" y="140" width="120" height="60" as="geometry" />
        </mxCell>
        <mxCell id="APJIx1h4CYN2kZLJuxOD-10" value="" style="edgeStyle=orthogonalEdgeStyle;rounded=0;orthogonalLoop=1;jettySize=auto;html=1;" edge="1" parent="1" source="APJIx1h4CYN2kZLJuxOD-7" target="APJIx1h4CYN2kZLJuxOD-9">
          <mxGeometry relative="1" as="geometry" />
        </mxCell>
        <mxCell id="APJIx1h4CYN2kZLJuxOD-7" value="API Gateway With&lt;div&gt;Auth Service&lt;/div&gt;" style="rounded=1;whiteSpace=wrap;html=1;" vertex="1" parent="1">
          <mxGeometry x="280" y="140" width="120" height="60" as="geometry" />
        </mxCell>
        <mxCell id="APJIx1h4CYN2kZLJuxOD-20" style="edgeStyle=orthogonalEdgeStyle;rounded=0;orthogonalLoop=1;jettySize=auto;html=1;exitX=1;exitY=0.5;exitDx=0;exitDy=0;" edge="1" parent="1">
          <mxGeometry relative="1" as="geometry">
            <mxPoint x="820" y="-259.99952380952385" as="targetPoint" />
            <mxPoint x="750" y="-250.19" as="sourcePoint" />
          </mxGeometry>
        </mxCell>
        <mxCell id="APJIx1h4CYN2kZLJuxOD-40" style="edgeStyle=orthogonalEdgeStyle;rounded=0;orthogonalLoop=1;jettySize=auto;html=1;" edge="1" parent="1" source="APJIx1h4CYN2kZLJuxOD-9" target="APJIx1h4CYN2kZLJuxOD-39">
          <mxGeometry relative="1" as="geometry" />
        </mxCell>
        <mxCell id="APJIx1h4CYN2kZLJuxOD-47" style="edgeStyle=orthogonalEdgeStyle;rounded=0;orthogonalLoop=1;jettySize=auto;html=1;entryX=0.5;entryY=0;entryDx=0;entryDy=0;exitX=0.715;exitY=-0.025;exitDx=0;exitDy=0;exitPerimeter=0;" edge="1" parent="1" source="APJIx1h4CYN2kZLJuxOD-9" target="APJIx1h4CYN2kZLJuxOD-27">
          <mxGeometry relative="1" as="geometry">
            <mxPoint x="520" y="80" as="sourcePoint" />
            <mxPoint x="1015" y="90" as="targetPoint" />
            <Array as="points">
              <mxPoint x="520" y="149" />
              <mxPoint x="520" y="40" />
              <mxPoint x="800" y="40" />
              <mxPoint x="800" y="-80" />
              <mxPoint x="1010" y="-80" />
              <mxPoint x="1010" y="60" />
              <mxPoint x="1015" y="60" />
            </Array>
          </mxGeometry>
        </mxCell>
        <mxCell id="APJIx1h4CYN2kZLJuxOD-48" value="Search&amp;nbsp;" style="edgeLabel;html=1;align=center;verticalAlign=middle;resizable=0;points=[];" vertex="1" connectable="0" parent="APJIx1h4CYN2kZLJuxOD-47">
          <mxGeometry x="-0.2952" y="-1" relative="1" as="geometry">
            <mxPoint as="offset" />
          </mxGeometry>
        </mxCell>
        <mxCell id="APJIx1h4CYN2kZLJuxOD-9" value="&amp;nbsp;Load Balancer" style="rounded=1;whiteSpace=wrap;html=1;" vertex="1" parent="1">
          <mxGeometry x="430" y="150" width="120" height="40" as="geometry" />
        </mxCell>
        <mxCell id="APJIx1h4CYN2kZLJuxOD-11" value="&lt;div&gt;Relational&lt;/div&gt;Database&lt;div&gt;Master&lt;/div&gt;" style="shape=cylinder3;whiteSpace=wrap;html=1;boundedLbl=1;backgroundOutline=1;size=15;" vertex="1" parent="1">
          <mxGeometry x="840" y="130" width="60" height="80" as="geometry" />
        </mxCell>
        <mxCell id="APJIx1h4CYN2kZLJuxOD-14" value="Elastic Search&lt;div&gt;KeyWord Search&lt;/div&gt;" style="rounded=1;whiteSpace=wrap;html=1;" vertex="1" parent="1">
          <mxGeometry x="810" y="-50" width="120" height="60" as="geometry" />
        </mxCell>
        <mxCell id="APJIx1h4CYN2kZLJuxOD-15" value="" style="endArrow=classic;startArrow=classic;html=1;rounded=0;entryX=0.5;entryY=1;entryDx=0;entryDy=0;" edge="1" parent="1" source="APJIx1h4CYN2kZLJuxOD-11" target="APJIx1h4CYN2kZLJuxOD-14">
          <mxGeometry width="50" height="50" relative="1" as="geometry">
            <mxPoint x="860" y="140" as="sourcePoint" />
            <mxPoint x="910" y="90" as="targetPoint" />
          </mxGeometry>
        </mxCell>
        <mxCell id="APJIx1h4CYN2kZLJuxOD-16" value="book id keywords Mapping" style="edgeLabel;html=1;align=center;verticalAlign=middle;resizable=0;points=[];" vertex="1" connectable="0" parent="APJIx1h4CYN2kZLJuxOD-15">
          <mxGeometry x="-0.0063" y="3" relative="1" as="geometry">
            <mxPoint x="3" y="-30" as="offset" />
          </mxGeometry>
        </mxCell>
        <mxCell id="APJIx1h4CYN2kZLJuxOD-17" value="Need to sync，or Double write&lt;div&gt;With ES&lt;/div&gt;" style="text;html=1;align=center;verticalAlign=middle;whiteSpace=wrap;rounded=0;" vertex="1" parent="1">
          <mxGeometry x="830" y="80" width="70" height="30" as="geometry" />
        </mxCell>
        <mxCell id="APJIx1h4CYN2kZLJuxOD-31" style="edgeStyle=orthogonalEdgeStyle;rounded=0;orthogonalLoop=1;jettySize=auto;html=1;" edge="1" parent="1" source="APJIx1h4CYN2kZLJuxOD-19" target="APJIx1h4CYN2kZLJuxOD-11">
          <mxGeometry relative="1" as="geometry" />
        </mxCell>
        <mxCell id="APJIx1h4CYN2kZLJuxOD-34" style="edgeStyle=orthogonalEdgeStyle;rounded=0;orthogonalLoop=1;jettySize=auto;html=1;exitX=0.5;exitY=1;exitDx=0;exitDy=0;entryX=0;entryY=0.5;entryDx=0;entryDy=0;" edge="1" parent="1" source="APJIx1h4CYN2kZLJuxOD-19" target="APJIx1h4CYN2kZLJuxOD-32">
          <mxGeometry relative="1" as="geometry" />
        </mxCell>
        <mxCell id="APJIx1h4CYN2kZLJuxOD-19" value="Shopping&lt;div&gt;Cart&lt;/div&gt;&lt;div&gt;Service&lt;/div&gt;" style="rounded=1;whiteSpace=wrap;html=1;" vertex="1" parent="1">
          <mxGeometry x="620" y="310" width="110" height="60" as="geometry" />
        </mxCell>
        <mxCell id="APJIx1h4CYN2kZLJuxOD-21" value="&lt;div&gt;Redis&lt;/div&gt;Cache" style="rounded=1;whiteSpace=wrap;html=1;" vertex="1" parent="1">
          <mxGeometry x="590" y="70" width="100" height="50" as="geometry" />
        </mxCell>
        <mxCell id="APJIx1h4CYN2kZLJuxOD-22" value="Assuming that 100 million * 10 / 100k (s) = 10^8 * 10 / 10^5 = 10^4 = 10k Searchs/second" style="text;html=1;align=center;verticalAlign=middle;whiteSpace=wrap;rounded=0;" vertex="1" parent="1">
          <mxGeometry x="250" y="-30" width="190" height="40" as="geometry" />
        </mxCell>
        <mxCell id="APJIx1h4CYN2kZLJuxOD-23" value="Assuming that the peak searchs is 5 times than average 10k * 5 = 50 k Searchs/second" style="text;html=1;align=center;verticalAlign=middle;whiteSpace=wrap;rounded=0;" vertex="1" parent="1">
          <mxGeometry x="240" y="20" width="220" height="40" as="geometry" />
        </mxCell>
        <mxCell id="APJIx1h4CYN2kZLJuxOD-24" value="Assuming that 10 searchs for a user per day" style="text;html=1;align=center;verticalAlign=middle;whiteSpace=wrap;rounded=0;" vertex="1" parent="1">
          <mxGeometry x="270" y="-90" width="110" height="30" as="geometry" />
        </mxCell>
        <mxCell id="APJIx1h4CYN2kZLJuxOD-26" value="Total storage:&amp;nbsp; 100 million books * 10MB = 100 * 10^6 * 10 * 10^6 = 1000 * 10^12 = 1000TB = 1PB storage required to store for all books" style="text;html=1;align=center;verticalAlign=middle;whiteSpace=wrap;rounded=0;" vertex="1" parent="1">
          <mxGeometry x="260" y="80" width="260" height="30" as="geometry" />
        </mxCell>
        <mxCell id="APJIx1h4CYN2kZLJuxOD-49" value="" style="edgeStyle=orthogonalEdgeStyle;rounded=0;orthogonalLoop=1;jettySize=auto;html=1;" edge="1" parent="1" source="APJIx1h4CYN2kZLJuxOD-27" target="APJIx1h4CYN2kZLJuxOD-11">
          <mxGeometry relative="1" as="geometry" />
        </mxCell>
        <mxCell id="APJIx1h4CYN2kZLJuxOD-27" value="Search Service" style="rounded=1;whiteSpace=wrap;html=1;" vertex="1" parent="1">
          <mxGeometry x="950" y="160" width="130" height="60" as="geometry" />
        </mxCell>
        <mxCell id="APJIx1h4CYN2kZLJuxOD-28" value="" style="endArrow=classic;html=1;rounded=0;entryX=0.009;entryY=0.555;entryDx=0;entryDy=0;entryPerimeter=0;exitX=0.568;exitY=0.975;exitDx=0;exitDy=0;exitPerimeter=0;" edge="1" parent="1" source="APJIx1h4CYN2kZLJuxOD-27">
          <mxGeometry width="50" height="50" relative="1" as="geometry">
            <mxPoint x="998.0799999999998" y="462.3400000000001" as="sourcePoint" />
            <mxPoint x="729.9999999999999" y="349.99999999999994" as="targetPoint" />
            <Array as="points">
              <mxPoint x="950" y="350" />
            </Array>
          </mxGeometry>
        </mxCell>
        <mxCell id="APJIx1h4CYN2kZLJuxOD-35" value="" style="edgeStyle=orthogonalEdgeStyle;rounded=0;orthogonalLoop=1;jettySize=auto;html=1;" edge="1" parent="1" source="APJIx1h4CYN2kZLJuxOD-32" target="APJIx1h4CYN2kZLJuxOD-33">
          <mxGeometry relative="1" as="geometry" />
        </mxCell>
        <mxCell id="APJIx1h4CYN2kZLJuxOD-32" value="Place Order&lt;div&gt;Service&lt;/div&gt;" style="rounded=1;whiteSpace=wrap;html=1;" vertex="1" parent="1">
          <mxGeometry x="760" y="370" width="110" height="60" as="geometry" />
        </mxCell>
        <mxCell id="APJIx1h4CYN2kZLJuxOD-33" value="Third-Party Payment" style="rounded=1;whiteSpace=wrap;html=1;" vertex="1" parent="1">
          <mxGeometry x="950" y="370" width="120" height="60" as="geometry" />
        </mxCell>
        <mxCell id="APJIx1h4CYN2kZLJuxOD-43" style="edgeStyle=orthogonalEdgeStyle;rounded=0;orthogonalLoop=1;jettySize=auto;html=1;exitX=0;exitY=0.5;exitDx=0;exitDy=0;" edge="1" parent="1" source="APJIx1h4CYN2kZLJuxOD-37" target="APJIx1h4CYN2kZLJuxOD-38">
          <mxGeometry relative="1" as="geometry" />
        </mxCell>
        <mxCell id="APJIx1h4CYN2kZLJuxOD-37" value="Recommendation&lt;div&gt;Worker&lt;/div&gt;" style="rounded=1;whiteSpace=wrap;html=1;" vertex="1" parent="1">
          <mxGeometry x="670" y="220" width="100" height="40" as="geometry" />
        </mxCell>
        <mxCell id="APJIx1h4CYN2kZLJuxOD-44" style="edgeStyle=orthogonalEdgeStyle;rounded=0;orthogonalLoop=1;jettySize=auto;html=1;exitX=0.855;exitY=1;exitDx=0;exitDy=-4.35;exitPerimeter=0;" edge="1" parent="1" source="APJIx1h4CYN2kZLJuxOD-38" target="APJIx1h4CYN2kZLJuxOD-19">
          <mxGeometry relative="1" as="geometry" />
        </mxCell>
        <mxCell id="APJIx1h4CYN2kZLJuxOD-38" value="&amp;nbsp;Recommendation&lt;div&gt;DB&lt;/div&gt;" style="shape=cylinder3;whiteSpace=wrap;html=1;boundedLbl=1;backgroundOutline=1;size=15;" vertex="1" parent="1">
          <mxGeometry x="580" y="205" width="60" height="70" as="geometry" />
        </mxCell>
        <mxCell id="APJIx1h4CYN2kZLJuxOD-39" value="Recommendatoin&lt;div&gt;Service&lt;/div&gt;" style="rounded=1;whiteSpace=wrap;html=1;" vertex="1" parent="1">
          <mxGeometry x="450" y="270" width="80" height="50" as="geometry" />
        </mxCell>
        <mxCell id="APJIx1h4CYN2kZLJuxOD-41" style="edgeStyle=orthogonalEdgeStyle;rounded=0;orthogonalLoop=1;jettySize=auto;html=1;entryX=0.5;entryY=1;entryDx=0;entryDy=0;entryPerimeter=0;" edge="1" parent="1" source="APJIx1h4CYN2kZLJuxOD-39" target="APJIx1h4CYN2kZLJuxOD-38">
          <mxGeometry relative="1" as="geometry" />
        </mxCell>
        <mxCell id="APJIx1h4CYN2kZLJuxOD-42" value="" style="endArrow=classic;html=1;rounded=0;exitX=0.145;exitY=1;exitDx=0;exitDy=-4.35;exitPerimeter=0;" edge="1" parent="1" source="APJIx1h4CYN2kZLJuxOD-11">
          <mxGeometry width="50" height="50" relative="1" as="geometry">
            <mxPoint x="760" y="195" as="sourcePoint" />
            <mxPoint x="830" y="230" as="targetPoint" />
          </mxGeometry>
        </mxCell>
        <mxCell id="APJIx1h4CYN2kZLJuxOD-46" value="" style="endArrow=classic;html=1;rounded=0;entryX=0.973;entryY=0.999;entryDx=0;entryDy=0;entryPerimeter=0;" edge="1" parent="1" target="APJIx1h4CYN2kZLJuxOD-14">
          <mxGeometry width="50" height="50" relative="1" as="geometry">
            <mxPoint x="970" y="157" as="sourcePoint" />
            <mxPoint x="1010" y="100" as="targetPoint" />
          </mxGeometry>
        </mxCell>
        <mxCell id="APJIx1h4CYN2kZLJuxOD-52" style="edgeStyle=orthogonalEdgeStyle;rounded=0;orthogonalLoop=1;jettySize=auto;html=1;entryX=1;entryY=0.75;entryDx=0;entryDy=0;" edge="1" parent="1" source="APJIx1h4CYN2kZLJuxOD-51" target="APJIx1h4CYN2kZLJuxOD-37">
          <mxGeometry relative="1" as="geometry" />
        </mxCell>
        <mxCell id="APJIx1h4CYN2kZLJuxOD-51" value="MQ" style="rounded=1;whiteSpace=wrap;html=1;" vertex="1" parent="1">
          <mxGeometry x="790" y="230" width="70" height="40" as="geometry" />
        </mxCell>
        <mxCell id="APJIx1h4CYN2kZLJuxOD-53" value="&lt;div&gt;Databaase&lt;/div&gt;Read Replica" style="shape=cylinder3;whiteSpace=wrap;html=1;boundedLbl=1;backgroundOutline=1;size=15;" vertex="1" parent="1">
          <mxGeometry x="640" y="140" width="80" height="57.5" as="geometry" />
        </mxCell>
        <mxCell id="APJIx1h4CYN2kZLJuxOD-54" value="&lt;div&gt;Database&lt;/div&gt;Read&lt;div&gt;Replica&lt;/div&gt;" style="shape=cylinder3;whiteSpace=wrap;html=1;boundedLbl=1;backgroundOutline=1;size=15;" vertex="1" parent="1">
          <mxGeometry x="680" y="120" width="90" height="62.5" as="geometry" />
        </mxCell>
        <mxCell id="APJIx1h4CYN2kZLJuxOD-55" style="edgeStyle=orthogonalEdgeStyle;rounded=0;orthogonalLoop=1;jettySize=auto;html=1;exitX=0;exitY=0;exitDx=0;exitDy=52.5;exitPerimeter=0;entryX=0.938;entryY=0.858;entryDx=0;entryDy=0;entryPerimeter=0;" edge="1" parent="1" source="APJIx1h4CYN2kZLJuxOD-11" target="APJIx1h4CYN2kZLJuxOD-54">
          <mxGeometry relative="1" as="geometry" />
        </mxCell>
      </root>
    </mxGraphModel>
  </diagram>
</mxfile>
